<?xml version="1.0"?>

<svg xmlns="http://www.w3.org/2000/svg" xmlns:xlink="http://www.w3.org/1999/xlink" version="1.1" width="1191px" height="1191px" viewBox="0 0 1191 1191">
<defs/>
<rect x="0" y="0" width="1191" height="1191" fill="#000000" fill-opacity="0.99212598425197"/>
<rect x="44" y="44" width="38" height="38" fill="#edba73"/>
<rect x="82" y="44" width="38" height="38" fill="#edba73"/>
<rect x="120" y="44" width="38" height="38" fill="#edba73"/>
<rect x="158" y="44" width="38" height="38" fill="#edba73"/>
<rect x="196" y="44" width="38" height="38" fill="#edba73"/>
<rect x="234" y="44" width="38" height="38" fill="#edba73"/>
<rect x="272" y="44" width="38" height="38" fill="#edba73"/>
<rect x="348" y="44" width="38" height="38" fill="#edba73"/>
<rect x="386" y="44" width="38" height="38" fill="#edba73"/>
<rect x="462" y="44" width="38" height="38" fill="#edba73"/>
<rect x="500" y="44" width="38" height="38" fill="#edba73"/>
<rect x="576" y="44" width="38" height="38" fill="#edba73"/>
<rect x="614" y="44" width="38" height="38" fill="#edba73"/>
<rect x="652" y="44" width="38" height="38" fill="#edba73"/>
<rect x="880" y="44" width="38" height="38" fill="#edba73"/>
<rect x="918" y="44" width="38" height="38" fill="#edba73"/>
<rect x="956" y="44" width="38" height="38" fill="#edba73"/>
<rect x="994" y="44" width="38" height="38" fill="#edba73"/>
<rect x="1032" y="44" width="38" height="38" fill="#edba73"/>
<rect x="1070" y="44" width="38" height="38" fill="#edba73"/>
<rect x="1108" y="44" width="38" height="38" fill="#edba73"/>
<rect x="44" y="82" width="38" height="38" fill="#edba73"/>
<rect x="272" y="82" width="38" height="38" fill="#edba73"/>
<rect x="348" y="82" width="38" height="38" fill="#edba73"/>
<rect x="462" y="82" width="38" height="38" fill="#edba73"/>
<rect x="538" y="82" width="38" height="38" fill="#edba73"/>
<rect x="614" y="82" width="38" height="38" fill="#edba73"/>
<rect x="652" y="82" width="38" height="38" fill="#edba73"/>
<rect x="690" y="82" width="38" height="38" fill="#edba73"/>
<rect x="728" y="82" width="38" height="38" fill="#edba73"/>
<rect x="804" y="82" width="38" height="38" fill="#edba73"/>
<rect x="880" y="82" width="38" height="38" fill="#edba73"/>
<rect x="1108" y="82" width="38" height="38" fill="#edba73"/>
<rect x="44" y="120" width="38" height="38" fill="#edba73"/>
<rect x="120" y="120" width="38" height="38" fill="#edba73"/>
<rect x="158" y="120" width="38" height="38" fill="#edba73"/>
<rect x="196" y="120" width="38" height="38" fill="#edba73"/>
<rect x="272" y="120" width="38" height="38" fill="#edba73"/>
<rect x="348" y="120" width="38" height="38" fill="#edba73"/>
<rect x="424" y="120" width="38" height="38" fill="#edba73"/>
<rect x="462" y="120" width="38" height="38" fill="#edba73"/>
<rect x="500" y="120" width="38" height="38" fill="#edba73"/>
<rect x="576" y="120" width="38" height="38" fill="#edba73"/>
<rect x="652" y="120" width="38" height="38" fill="#edba73"/>
<rect x="690" y="120" width="38" height="38" fill="#edba73"/>
<rect x="880" y="120" width="38" height="38" fill="#edba73"/>
<rect x="956" y="120" width="38" height="38" fill="#edba73"/>
<rect x="994" y="120" width="38" height="38" fill="#edba73"/>
<rect x="1032" y="120" width="38" height="38" fill="#edba73"/>
<rect x="1108" y="120" width="38" height="38" fill="#edba73"/>
<rect x="44" y="158" width="38" height="38" fill="#edba73"/>
<rect x="120" y="158" width="38" height="38" fill="#edba73"/>
<rect x="158" y="158" width="38" height="38" fill="#edba73"/>
<rect x="196" y="158" width="38" height="38" fill="#edba73"/>
<rect x="272" y="158" width="38" height="38" fill="#edba73"/>
<rect x="386" y="158" width="38" height="38" fill="#edba73"/>
<rect x="424" y="158" width="38" height="38" fill="#edba73"/>
<rect x="462" y="158" width="38" height="38" fill="#edba73"/>
<rect x="500" y="158" width="38" height="38" fill="#edba73"/>
<rect x="576" y="158" width="38" height="38" fill="#edba73"/>
<rect x="614" y="158" width="38" height="38" fill="#edba73"/>
<rect x="728" y="158" width="38" height="38" fill="#edba73"/>
<rect x="880" y="158" width="38" height="38" fill="#edba73"/>
<rect x="956" y="158" width="38" height="38" fill="#edba73"/>
<rect x="994" y="158" width="38" height="38" fill="#edba73"/>
<rect x="1032" y="158" width="38" height="38" fill="#edba73"/>
<rect x="1108" y="158" width="38" height="38" fill="#edba73"/>
<rect x="44" y="196" width="38" height="38" fill="#edba73"/>
<rect x="120" y="196" width="38" height="38" fill="#edba73"/>
<rect x="158" y="196" width="38" height="38" fill="#edba73"/>
<rect x="196" y="196" width="38" height="38" fill="#edba73"/>
<rect x="272" y="196" width="38" height="38" fill="#edba73"/>
<rect x="386" y="196" width="38" height="38" fill="#edba73"/>
<rect x="424" y="196" width="38" height="38" fill="#edba73"/>
<rect x="614" y="196" width="38" height="38" fill="#edba73"/>
<rect x="690" y="196" width="38" height="38" fill="#edba73"/>
<rect x="728" y="196" width="38" height="38" fill="#edba73"/>
<rect x="766" y="196" width="38" height="38" fill="#edba73"/>
<rect x="804" y="196" width="38" height="38" fill="#edba73"/>
<rect x="880" y="196" width="38" height="38" fill="#edba73"/>
<rect x="956" y="196" width="38" height="38" fill="#edba73"/>
<rect x="994" y="196" width="38" height="38" fill="#edba73"/>
<rect x="1032" y="196" width="38" height="38" fill="#edba73"/>
<rect x="1108" y="196" width="38" height="38" fill="#edba73"/>
<rect x="44" y="234" width="38" height="38" fill="#edba73"/>
<rect x="272" y="234" width="38" height="38" fill="#edba73"/>
<rect x="348" y="234" width="38" height="38" fill="#edba73"/>
<rect x="424" y="234" width="38" height="38" fill="#edba73"/>
<rect x="462" y="234" width="38" height="38" fill="#edba73"/>
<rect x="538" y="234" width="38" height="38" fill="#edba73"/>
<rect x="576" y="234" width="38" height="38" fill="#edba73"/>
<rect x="614" y="234" width="38" height="38" fill="#edba73"/>
<rect x="690" y="234" width="38" height="38" fill="#edba73"/>
<rect x="804" y="234" width="38" height="38" fill="#edba73"/>
<rect x="880" y="234" width="38" height="38" fill="#edba73"/>
<rect x="1108" y="234" width="38" height="38" fill="#edba73"/>
<rect x="44" y="272" width="38" height="38" fill="#edba73"/>
<rect x="82" y="272" width="38" height="38" fill="#edba73"/>
<rect x="120" y="272" width="38" height="38" fill="#edba73"/>
<rect x="158" y="272" width="38" height="38" fill="#edba73"/>
<rect x="196" y="272" width="38" height="38" fill="#edba73"/>
<rect x="234" y="272" width="38" height="38" fill="#edba73"/>
<rect x="272" y="272" width="38" height="38" fill="#edba73"/>
<rect x="348" y="272" width="38" height="38" fill="#edba73"/>
<rect x="424" y="272" width="38" height="38" fill="#edba73"/>
<rect x="500" y="272" width="38" height="38" fill="#edba73"/>
<rect x="576" y="272" width="38" height="38" fill="#edba73"/>
<rect x="652" y="272" width="38" height="38" fill="#edba73"/>
<rect x="728" y="272" width="38" height="38" fill="#edba73"/>
<rect x="804" y="272" width="38" height="38" fill="#edba73"/>
<rect x="880" y="272" width="38" height="38" fill="#edba73"/>
<rect x="918" y="272" width="38" height="38" fill="#edba73"/>
<rect x="956" y="272" width="38" height="38" fill="#edba73"/>
<rect x="994" y="272" width="38" height="38" fill="#edba73"/>
<rect x="1032" y="272" width="38" height="38" fill="#edba73"/>
<rect x="1070" y="272" width="38" height="38" fill="#edba73"/>
<rect x="1108" y="272" width="38" height="38" fill="#edba73"/>
<rect x="348" y="310" width="38" height="38" fill="#edba73"/>
<rect x="462" y="310" width="38" height="38" fill="#edba73"/>
<rect x="538" y="310" width="38" height="38" fill="#edba73"/>
<rect x="576" y="310" width="38" height="38" fill="#edba73"/>
<rect x="652" y="310" width="38" height="38" fill="#edba73"/>
<rect x="690" y="310" width="38" height="38" fill="#edba73"/>
<rect x="728" y="310" width="38" height="38" fill="#edba73"/>
<rect x="766" y="310" width="38" height="38" fill="#edba73"/>
<rect x="120" y="348" width="38" height="38" fill="#edba73"/>
<rect x="158" y="348" width="38" height="38" fill="#edba73"/>
<rect x="196" y="348" width="38" height="38" fill="#edba73"/>
<rect x="272" y="348" width="38" height="38" fill="#edba73"/>
<rect x="348" y="348" width="38" height="38" fill="#edba73"/>
<rect x="538" y="348" width="38" height="38" fill="#edba73"/>
<rect x="576" y="348" width="38" height="38" fill="#edba73"/>
<rect x="652" y="348" width="38" height="38" fill="#edba73"/>
<rect x="842" y="348" width="38" height="38" fill="#edba73"/>
<rect x="880" y="348" width="38" height="38" fill="#edba73"/>
<rect x="918" y="348" width="38" height="38" fill="#edba73"/>
<rect x="1032" y="348" width="38" height="38" fill="#edba73"/>
<rect x="1070" y="348" width="38" height="38" fill="#edba73"/>
<rect x="1108" y="348" width="38" height="38" fill="#edba73"/>
<rect x="82" y="386" width="38" height="38" fill="#edba73"/>
<rect x="158" y="386" width="38" height="38" fill="#edba73"/>
<rect x="196" y="386" width="38" height="38" fill="#edba73"/>
<rect x="310" y="386" width="38" height="38" fill="#edba73"/>
<rect x="386" y="386" width="38" height="38" fill="#edba73"/>
<rect x="424" y="386" width="38" height="38" fill="#edba73"/>
<rect x="538" y="386" width="38" height="38" fill="#edba73"/>
<rect x="614" y="386" width="38" height="38" fill="#edba73"/>
<rect x="652" y="386" width="38" height="38" fill="#edba73"/>
<rect x="690" y="386" width="38" height="38" fill="#edba73"/>
<rect x="728" y="386" width="38" height="38" fill="#edba73"/>
<rect x="804" y="386" width="38" height="38" fill="#edba73"/>
<rect x="842" y="386" width="38" height="38" fill="#edba73"/>
<rect x="918" y="386" width="38" height="38" fill="#edba73"/>
<rect x="1108" y="386" width="38" height="38" fill="#edba73"/>
<rect x="82" y="424" width="38" height="38" fill="#edba73"/>
<rect x="120" y="424" width="38" height="38" fill="#edba73"/>
<rect x="158" y="424" width="38" height="38" fill="#edba73"/>
<rect x="234" y="424" width="38" height="38" fill="#edba73"/>
<rect x="272" y="424" width="38" height="38" fill="#edba73"/>
<rect x="310" y="424" width="38" height="38" fill="#edba73"/>
<rect x="424" y="424" width="38" height="38" fill="#edba73"/>
<rect x="462" y="424" width="38" height="38" fill="#edba73"/>
<rect x="766" y="424" width="38" height="38" fill="#edba73"/>
<rect x="842" y="424" width="38" height="38" fill="#edba73"/>
<rect x="994" y="424" width="38" height="38" fill="#edba73"/>
<rect x="1032" y="424" width="38" height="38" fill="#edba73"/>
<rect x="1108" y="424" width="38" height="38" fill="#edba73"/>
<rect x="44" y="462" width="38" height="38" fill="#edba73"/>
<rect x="196" y="462" width="38" height="38" fill="#edba73"/>
<rect x="348" y="462" width="38" height="38" fill="#edba73"/>
<rect x="462" y="462" width="38" height="38" fill="#edba73"/>
<rect x="538" y="462" width="38" height="38" fill="#edba73"/>
<rect x="614" y="462" width="38" height="38" fill="#edba73"/>
<rect x="652" y="462" width="38" height="38" fill="#edba73"/>
<rect x="690" y="462" width="38" height="38" fill="#edba73"/>
<rect x="766" y="462" width="38" height="38" fill="#edba73"/>
<rect x="804" y="462" width="38" height="38" fill="#edba73"/>
<rect x="880" y="462" width="38" height="38" fill="#edba73"/>
<rect x="918" y="462" width="38" height="38" fill="#edba73"/>
<rect x="1070" y="462" width="38" height="38" fill="#edba73"/>
<rect x="120" y="500" width="38" height="38" fill="#edba73"/>
<rect x="158" y="500" width="38" height="38" fill="#edba73"/>
<rect x="272" y="500" width="38" height="38" fill="#edba73"/>
<rect x="348" y="500" width="38" height="38" fill="#edba73"/>
<rect x="386" y="500" width="38" height="38" fill="#edba73"/>
<rect x="424" y="500" width="38" height="38" fill="#edba73"/>
<rect x="538" y="500" width="38" height="38" fill="#edba73"/>
<rect x="614" y="500" width="38" height="38" fill="#edba73"/>
<rect x="690" y="500" width="38" height="38" fill="#edba73"/>
<rect x="728" y="500" width="38" height="38" fill="#edba73"/>
<rect x="766" y="500" width="38" height="38" fill="#edba73"/>
<rect x="842" y="500" width="38" height="38" fill="#edba73"/>
<rect x="880" y="500" width="38" height="38" fill="#edba73"/>
<rect x="994" y="500" width="38" height="38" fill="#edba73"/>
<rect x="1032" y="500" width="38" height="38" fill="#edba73"/>
<rect x="1070" y="500" width="38" height="38" fill="#edba73"/>
<rect x="44" y="538" width="38" height="38" fill="#edba73"/>
<rect x="234" y="538" width="38" height="38" fill="#edba73"/>
<rect x="310" y="538" width="38" height="38" fill="#edba73"/>
<rect x="348" y="538" width="38" height="38" fill="#edba73"/>
<rect x="386" y="538" width="38" height="38" fill="#edba73"/>
<rect x="424" y="538" width="38" height="38" fill="#edba73"/>
<rect x="462" y="538" width="38" height="38" fill="#edba73"/>
<rect x="500" y="538" width="38" height="38" fill="#edba73"/>
<rect x="538" y="538" width="38" height="38" fill="#edba73"/>
<rect x="576" y="538" width="38" height="38" fill="#edba73"/>
<rect x="614" y="538" width="38" height="38" fill="#edba73"/>
<rect x="652" y="538" width="38" height="38" fill="#edba73"/>
<rect x="690" y="538" width="38" height="38" fill="#edba73"/>
<rect x="766" y="538" width="38" height="38" fill="#edba73"/>
<rect x="804" y="538" width="38" height="38" fill="#edba73"/>
<rect x="994" y="538" width="38" height="38" fill="#edba73"/>
<rect x="44" y="576" width="38" height="38" fill="#edba73"/>
<rect x="82" y="576" width="38" height="38" fill="#edba73"/>
<rect x="158" y="576" width="38" height="38" fill="#edba73"/>
<rect x="272" y="576" width="38" height="38" fill="#edba73"/>
<rect x="538" y="576" width="38" height="38" fill="#edba73"/>
<rect x="576" y="576" width="38" height="38" fill="#edba73"/>
<rect x="652" y="576" width="38" height="38" fill="#edba73"/>
<rect x="690" y="576" width="38" height="38" fill="#edba73"/>
<rect x="804" y="576" width="38" height="38" fill="#edba73"/>
<rect x="842" y="576" width="38" height="38" fill="#edba73"/>
<rect x="918" y="576" width="38" height="38" fill="#edba73"/>
<rect x="994" y="576" width="38" height="38" fill="#edba73"/>
<rect x="1032" y="576" width="38" height="38" fill="#edba73"/>
<rect x="1070" y="576" width="38" height="38" fill="#edba73"/>
<rect x="1108" y="576" width="38" height="38" fill="#edba73"/>
<rect x="44" y="614" width="38" height="38" fill="#edba73"/>
<rect x="82" y="614" width="38" height="38" fill="#edba73"/>
<rect x="120" y="614" width="38" height="38" fill="#edba73"/>
<rect x="234" y="614" width="38" height="38" fill="#edba73"/>
<rect x="424" y="614" width="38" height="38" fill="#edba73"/>
<rect x="462" y="614" width="38" height="38" fill="#edba73"/>
<rect x="500" y="614" width="38" height="38" fill="#edba73"/>
<rect x="538" y="614" width="38" height="38" fill="#edba73"/>
<rect x="652" y="614" width="38" height="38" fill="#edba73"/>
<rect x="728" y="614" width="38" height="38" fill="#edba73"/>
<rect x="766" y="614" width="38" height="38" fill="#edba73"/>
<rect x="956" y="614" width="38" height="38" fill="#edba73"/>
<rect x="994" y="614" width="38" height="38" fill="#edba73"/>
<rect x="1108" y="614" width="38" height="38" fill="#edba73"/>
<rect x="44" y="652" width="38" height="38" fill="#edba73"/>
<rect x="82" y="652" width="38" height="38" fill="#edba73"/>
<rect x="158" y="652" width="38" height="38" fill="#edba73"/>
<rect x="234" y="652" width="38" height="38" fill="#edba73"/>
<rect x="272" y="652" width="38" height="38" fill="#edba73"/>
<rect x="500" y="652" width="38" height="38" fill="#edba73"/>
<rect x="538" y="652" width="38" height="38" fill="#edba73"/>
<rect x="614" y="652" width="38" height="38" fill="#edba73"/>
<rect x="690" y="652" width="38" height="38" fill="#edba73"/>
<rect x="728" y="652" width="38" height="38" fill="#edba73"/>
<rect x="804" y="652" width="38" height="38" fill="#edba73"/>
<rect x="842" y="652" width="38" height="38" fill="#edba73"/>
<rect x="956" y="652" width="38" height="38" fill="#edba73"/>
<rect x="1070" y="652" width="38" height="38" fill="#edba73"/>
<rect x="44" y="690" width="38" height="38" fill="#edba73"/>
<rect x="120" y="690" width="38" height="38" fill="#edba73"/>
<rect x="196" y="690" width="38" height="38" fill="#edba73"/>
<rect x="234" y="690" width="38" height="38" fill="#edba73"/>
<rect x="348" y="690" width="38" height="38" fill="#edba73"/>
<rect x="462" y="690" width="38" height="38" fill="#edba73"/>
<rect x="500" y="690" width="38" height="38" fill="#edba73"/>
<rect x="614" y="690" width="38" height="38" fill="#edba73"/>
<rect x="652" y="690" width="38" height="38" fill="#edba73"/>
<rect x="956" y="690" width="38" height="38" fill="#edba73"/>
<rect x="1070" y="690" width="38" height="38" fill="#edba73"/>
<rect x="44" y="728" width="38" height="38" fill="#edba73"/>
<rect x="120" y="728" width="38" height="38" fill="#edba73"/>
<rect x="158" y="728" width="38" height="38" fill="#edba73"/>
<rect x="196" y="728" width="38" height="38" fill="#edba73"/>
<rect x="234" y="728" width="38" height="38" fill="#edba73"/>
<rect x="272" y="728" width="38" height="38" fill="#edba73"/>
<rect x="310" y="728" width="38" height="38" fill="#edba73"/>
<rect x="348" y="728" width="38" height="38" fill="#edba73"/>
<rect x="386" y="728" width="38" height="38" fill="#edba73"/>
<rect x="424" y="728" width="38" height="38" fill="#edba73"/>
<rect x="500" y="728" width="38" height="38" fill="#edba73"/>
<rect x="538" y="728" width="38" height="38" fill="#edba73"/>
<rect x="576" y="728" width="38" height="38" fill="#edba73"/>
<rect x="614" y="728" width="38" height="38" fill="#edba73"/>
<rect x="652" y="728" width="38" height="38" fill="#edba73"/>
<rect x="728" y="728" width="38" height="38" fill="#edba73"/>
<rect x="804" y="728" width="38" height="38" fill="#edba73"/>
<rect x="842" y="728" width="38" height="38" fill="#edba73"/>
<rect x="956" y="728" width="38" height="38" fill="#edba73"/>
<rect x="994" y="728" width="38" height="38" fill="#edba73"/>
<rect x="1032" y="728" width="38" height="38" fill="#edba73"/>
<rect x="44" y="766" width="38" height="38" fill="#edba73"/>
<rect x="196" y="766" width="38" height="38" fill="#edba73"/>
<rect x="234" y="766" width="38" height="38" fill="#edba73"/>
<rect x="310" y="766" width="38" height="38" fill="#edba73"/>
<rect x="462" y="766" width="38" height="38" fill="#edba73"/>
<rect x="538" y="766" width="38" height="38" fill="#edba73"/>
<rect x="614" y="766" width="38" height="38" fill="#edba73"/>
<rect x="690" y="766" width="38" height="38" fill="#edba73"/>
<rect x="880" y="766" width="38" height="38" fill="#edba73"/>
<rect x="956" y="766" width="38" height="38" fill="#edba73"/>
<rect x="994" y="766" width="38" height="38" fill="#edba73"/>
<rect x="1070" y="766" width="38" height="38" fill="#edba73"/>
<rect x="1108" y="766" width="38" height="38" fill="#edba73"/>
<rect x="44" y="804" width="38" height="38" fill="#edba73"/>
<rect x="196" y="804" width="38" height="38" fill="#edba73"/>
<rect x="272" y="804" width="38" height="38" fill="#edba73"/>
<rect x="310" y="804" width="38" height="38" fill="#edba73"/>
<rect x="424" y="804" width="38" height="38" fill="#edba73"/>
<rect x="462" y="804" width="38" height="38" fill="#edba73"/>
<rect x="538" y="804" width="38" height="38" fill="#edba73"/>
<rect x="614" y="804" width="38" height="38" fill="#edba73"/>
<rect x="804" y="804" width="38" height="38" fill="#edba73"/>
<rect x="842" y="804" width="38" height="38" fill="#edba73"/>
<rect x="880" y="804" width="38" height="38" fill="#edba73"/>
<rect x="918" y="804" width="38" height="38" fill="#edba73"/>
<rect x="956" y="804" width="38" height="38" fill="#edba73"/>
<rect x="994" y="804" width="38" height="38" fill="#edba73"/>
<rect x="1070" y="804" width="38" height="38" fill="#edba73"/>
<rect x="1108" y="804" width="38" height="38" fill="#edba73"/>
<rect x="348" y="842" width="38" height="38" fill="#edba73"/>
<rect x="386" y="842" width="38" height="38" fill="#edba73"/>
<rect x="424" y="842" width="38" height="38" fill="#edba73"/>
<rect x="500" y="842" width="38" height="38" fill="#edba73"/>
<rect x="538" y="842" width="38" height="38" fill="#edba73"/>
<rect x="614" y="842" width="38" height="38" fill="#edba73"/>
<rect x="652" y="842" width="38" height="38" fill="#edba73"/>
<rect x="690" y="842" width="38" height="38" fill="#edba73"/>
<rect x="728" y="842" width="38" height="38" fill="#edba73"/>
<rect x="766" y="842" width="38" height="38" fill="#edba73"/>
<rect x="804" y="842" width="38" height="38" fill="#edba73"/>
<rect x="956" y="842" width="38" height="38" fill="#edba73"/>
<rect x="994" y="842" width="38" height="38" fill="#edba73"/>
<rect x="1070" y="842" width="38" height="38" fill="#edba73"/>
<rect x="44" y="880" width="38" height="38" fill="#edba73"/>
<rect x="82" y="880" width="38" height="38" fill="#edba73"/>
<rect x="120" y="880" width="38" height="38" fill="#edba73"/>
<rect x="158" y="880" width="38" height="38" fill="#edba73"/>
<rect x="196" y="880" width="38" height="38" fill="#edba73"/>
<rect x="234" y="880" width="38" height="38" fill="#edba73"/>
<rect x="272" y="880" width="38" height="38" fill="#edba73"/>
<rect x="424" y="880" width="38" height="38" fill="#edba73"/>
<rect x="462" y="880" width="38" height="38" fill="#edba73"/>
<rect x="500" y="880" width="38" height="38" fill="#edba73"/>
<rect x="538" y="880" width="38" height="38" fill="#edba73"/>
<rect x="576" y="880" width="38" height="38" fill="#edba73"/>
<rect x="614" y="880" width="38" height="38" fill="#edba73"/>
<rect x="690" y="880" width="38" height="38" fill="#edba73"/>
<rect x="804" y="880" width="38" height="38" fill="#edba73"/>
<rect x="880" y="880" width="38" height="38" fill="#edba73"/>
<rect x="956" y="880" width="38" height="38" fill="#edba73"/>
<rect x="1032" y="880" width="38" height="38" fill="#edba73"/>
<rect x="44" y="918" width="38" height="38" fill="#edba73"/>
<rect x="272" y="918" width="38" height="38" fill="#edba73"/>
<rect x="386" y="918" width="38" height="38" fill="#edba73"/>
<rect x="424" y="918" width="38" height="38" fill="#edba73"/>
<rect x="462" y="918" width="38" height="38" fill="#edba73"/>
<rect x="500" y="918" width="38" height="38" fill="#edba73"/>
<rect x="614" y="918" width="38" height="38" fill="#edba73"/>
<rect x="766" y="918" width="38" height="38" fill="#edba73"/>
<rect x="804" y="918" width="38" height="38" fill="#edba73"/>
<rect x="956" y="918" width="38" height="38" fill="#edba73"/>
<rect x="994" y="918" width="38" height="38" fill="#edba73"/>
<rect x="1108" y="918" width="38" height="38" fill="#edba73"/>
<rect x="44" y="956" width="38" height="38" fill="#edba73"/>
<rect x="120" y="956" width="38" height="38" fill="#edba73"/>
<rect x="158" y="956" width="38" height="38" fill="#edba73"/>
<rect x="196" y="956" width="38" height="38" fill="#edba73"/>
<rect x="272" y="956" width="38" height="38" fill="#edba73"/>
<rect x="348" y="956" width="38" height="38" fill="#edba73"/>
<rect x="386" y="956" width="38" height="38" fill="#edba73"/>
<rect x="538" y="956" width="38" height="38" fill="#edba73"/>
<rect x="576" y="956" width="38" height="38" fill="#edba73"/>
<rect x="614" y="956" width="38" height="38" fill="#edba73"/>
<rect x="690" y="956" width="38" height="38" fill="#edba73"/>
<rect x="728" y="956" width="38" height="38" fill="#edba73"/>
<rect x="804" y="956" width="38" height="38" fill="#edba73"/>
<rect x="842" y="956" width="38" height="38" fill="#edba73"/>
<rect x="880" y="956" width="38" height="38" fill="#edba73"/>
<rect x="918" y="956" width="38" height="38" fill="#edba73"/>
<rect x="956" y="956" width="38" height="38" fill="#edba73"/>
<rect x="994" y="956" width="38" height="38" fill="#edba73"/>
<rect x="1070" y="956" width="38" height="38" fill="#edba73"/>
<rect x="44" y="994" width="38" height="38" fill="#edba73"/>
<rect x="120" y="994" width="38" height="38" fill="#edba73"/>
<rect x="158" y="994" width="38" height="38" fill="#edba73"/>
<rect x="196" y="994" width="38" height="38" fill="#edba73"/>
<rect x="272" y="994" width="38" height="38" fill="#edba73"/>
<rect x="348" y="994" width="38" height="38" fill="#edba73"/>
<rect x="424" y="994" width="38" height="38" fill="#edba73"/>
<rect x="462" y="994" width="38" height="38" fill="#edba73"/>
<rect x="538" y="994" width="38" height="38" fill="#edba73"/>
<rect x="576" y="994" width="38" height="38" fill="#edba73"/>
<rect x="614" y="994" width="38" height="38" fill="#edba73"/>
<rect x="728" y="994" width="38" height="38" fill="#edba73"/>
<rect x="766" y="994" width="38" height="38" fill="#edba73"/>
<rect x="804" y="994" width="38" height="38" fill="#edba73"/>
<rect x="956" y="994" width="38" height="38" fill="#edba73"/>
<rect x="44" y="1032" width="38" height="38" fill="#edba73"/>
<rect x="120" y="1032" width="38" height="38" fill="#edba73"/>
<rect x="158" y="1032" width="38" height="38" fill="#edba73"/>
<rect x="196" y="1032" width="38" height="38" fill="#edba73"/>
<rect x="272" y="1032" width="38" height="38" fill="#edba73"/>
<rect x="348" y="1032" width="38" height="38" fill="#edba73"/>
<rect x="424" y="1032" width="38" height="38" fill="#edba73"/>
<rect x="538" y="1032" width="38" height="38" fill="#edba73"/>
<rect x="614" y="1032" width="38" height="38" fill="#edba73"/>
<rect x="728" y="1032" width="38" height="38" fill="#edba73"/>
<rect x="842" y="1032" width="38" height="38" fill="#edba73"/>
<rect x="880" y="1032" width="38" height="38" fill="#edba73"/>
<rect x="918" y="1032" width="38" height="38" fill="#edba73"/>
<rect x="994" y="1032" width="38" height="38" fill="#edba73"/>
<rect x="1032" y="1032" width="38" height="38" fill="#edba73"/>
<rect x="1070" y="1032" width="38" height="38" fill="#edba73"/>
<rect x="44" y="1070" width="38" height="38" fill="#edba73"/>
<rect x="272" y="1070" width="38" height="38" fill="#edba73"/>
<rect x="424" y="1070" width="38" height="38" fill="#edba73"/>
<rect x="538" y="1070" width="38" height="38" fill="#edba73"/>
<rect x="576" y="1070" width="38" height="38" fill="#edba73"/>
<rect x="614" y="1070" width="38" height="38" fill="#edba73"/>
<rect x="690" y="1070" width="38" height="38" fill="#edba73"/>
<rect x="880" y="1070" width="38" height="38" fill="#edba73"/>
<rect x="994" y="1070" width="38" height="38" fill="#edba73"/>
<rect x="1108" y="1070" width="38" height="38" fill="#edba73"/>
<rect x="44" y="1108" width="38" height="38" fill="#edba73"/>
<rect x="82" y="1108" width="38" height="38" fill="#edba73"/>
<rect x="120" y="1108" width="38" height="38" fill="#edba73"/>
<rect x="158" y="1108" width="38" height="38" fill="#edba73"/>
<rect x="196" y="1108" width="38" height="38" fill="#edba73"/>
<rect x="234" y="1108" width="38" height="38" fill="#edba73"/>
<rect x="272" y="1108" width="38" height="38" fill="#edba73"/>
<rect x="386" y="1108" width="38" height="38" fill="#edba73"/>
<rect x="424" y="1108" width="38" height="38" fill="#edba73"/>
<rect x="538" y="1108" width="38" height="38" fill="#edba73"/>
<rect x="614" y="1108" width="38" height="38" fill="#edba73"/>
<rect x="728" y="1108" width="38" height="38" fill="#edba73"/>
<rect x="766" y="1108" width="38" height="38" fill="#edba73"/>
<rect x="804" y="1108" width="38" height="38" fill="#edba73"/>
<rect x="842" y="1108" width="38" height="38" fill="#edba73"/>
<rect x="880" y="1108" width="38" height="38" fill="#edba73"/>
<rect x="918" y="1108" width="38" height="38" fill="#edba73"/>
<rect x="956" y="1108" width="38" height="38" fill="#edba73"/>
<rect x="1032" y="1108" width="38" height="38" fill="#edba73"/>
</svg>

